<?xml version="1.0" standalone="no"?>
<!DOCTYPE svg PUBLIC "-//W3C//DTD SVG 20010904//EN"
 "http://www.w3.org/TR/2001/REC-SVG-20010904/DTD/svg10.dtd">
<svg version="1.0" xmlns="http://www.w3.org/2000/svg"
 width="1511.000000pt" height="363.000000pt" viewBox="0 0 1511.000000 363.000000"
 preserveAspectRatio="xMidYMid meet">

<g transform="translate(0.000000,363.000000) scale(0.100000,-0.100000)"
fill="#000000" stroke="none">
<path d="M338 3601 c-123 -40 -225 -127 -280 -239 -58 -118 -81 -68 341 -771
l374 -624 34 103 c200 613 868 919 1465 670 86 -35 227 -126 305 -194 108 -96
223 -261 278 -399 15 -37 28 -67 29 -67 12 2 149 40 152 42 2 2 -153 224 -343
494 -288 405 -347 495 -348 523 0 64 2 65 582 163 307 51 542 87 563 84 19 -3
47 -15 63 -26 l28 -21 -21 42 c-49 95 -161 186 -271 220 -58 18 -114 19 -1477
18 -1343 0 -1420 -1 -1474 -18z"/>
<path d="M3060 3124 c-190 -35 -360 -66 -377 -69 -21 -4 -33 -12 -33 -22 0 -9
138 -205 306 -437 169 -232 307 -422 308 -423 1 -2 210 49 319 78 l37 10 0
389 0 389 -60 75 -60 76 -48 -1 c-26 -1 -202 -30 -392 -65z"/>
<path d="M10 2068 c0 -538 3 -676 13 -673 6 2 120 29 252 60 419 97 415 96
415 113 0 8 -13 36 -29 61 -16 25 -163 278 -327 561 -163 283 -303 524 -311
535 -11 16 -13 -88 -13 -657z"/>
<path d="M4170 1815 l0 -885 500 0 500 0 0 95 0 95 -400 0 -400 0 0 790 0 790
-100 0 -100 0 0 -885z"/>
<path d="M11210 2610 l0 -90 208 -2 207 -3 0 -700 0 -700 -207 -3 -208 -2 0
-90 0 -90 510 0 510 0 0 90 0 90 -200 0 -200 0 0 795 0 795 -310 0 -310 0 0
-90z"/>
<path d="M12500 1826 l0 -876 165 0 165 0 0 319 0 318 198 6 c154 4 214 10
275 26 168 44 290 138 357 275 61 123 75 239 46 377 -40 187 -169 325 -371
396 l-80 28 -377 3 -378 3 0 -875z m682 594 c112 -31 188 -130 196 -255 8
-130 -40 -220 -146 -272 -56 -27 -61 -28 -227 -28 l-170 0 -3 283 -2 282 157
0 c87 0 175 -5 195 -10z"/>
<path d="M13950 1825 l0 -875 165 0 165 0 0 380 0 380 250 0 250 0 0 -380 0
-380 165 0 165 0 0 875 0 875 -165 0 -165 0 0 -360 0 -360 -250 0 -250 0 0
360 0 360 -165 0 -165 0 0 -875z"/>
<path d="M1795 2320 l-29 -30 12 -112 c18 -174 -10 -158 -34 20 -3 28 -9 52
-12 52 -3 0 -13 -7 -23 -16 -18 -16 -14 -37 26 -163 5 -18 0 -24 -29 -36 -19
-8 -37 -15 -40 -15 -2 0 -24 34 -48 75 -37 64 -47 75 -70 75 -27 0 -27 -1 32
-84 33 -46 60 -86 60 -90 0 -20 -26 4 -89 84 -71 89 -71 90 -116 90 l-45 0 0
-44 c0 -44 1 -45 90 -116 78 -62 104 -90 85 -90 -3 0 -41 25 -84 55 -43 30
-81 55 -85 55 -3 0 -6 -10 -6 -22 0 -17 14 -31 58 -55 96 -53 97 -54 81 -97
-7 -20 -18 -35 -24 -33 -5 3 -45 12 -87 22 -63 15 -80 16 -92 6 -9 -7 -14 -17
-11 -21 2 -4 45 -13 95 -19 78 -11 111 -23 99 -36 -2 -2 -57 2 -122 8 l-117
11 -30 -29 -30 -29 29 -29 29 -30 116 13 c104 12 140 10 124 -5 -2 -3 -45 -12
-94 -21 -49 -9 -90 -18 -92 -19 -1 -1 0 -10 4 -19 8 -21 35 -20 114 4 36 11
68 20 71 20 3 0 13 -17 21 -38 l15 -39 -78 -44 c-68 -38 -79 -48 -79 -72 l0
-28 90 61 c50 33 90 56 90 50 0 -5 -40 -42 -90 -82 -88 -70 -90 -73 -90 -115
l0 -43 45 0 c45 0 45 1 116 90 63 80 89 104 89 84 0 -4 -25 -42 -55 -85 -30
-43 -55 -81 -55 -84 0 -3 10 -5 23 -5 17 0 32 15 60 63 20 34 41 68 46 76 7
11 15 11 45 1 20 -6 36 -16 36 -22 0 -5 -9 -45 -20 -89 -21 -80 -20 -99 4 -99
9 0 18 30 27 95 9 70 16 95 27 95 11 0 13 -9 8 -42 -3 -24 -9 -78 -12 -121 -6
-72 -5 -79 16 -102 29 -31 41 -31 70 0 21 23 23 30 16 107 -4 46 -9 100 -13
121 -4 29 -2 37 10 37 11 0 18 -21 26 -82 7 -46 15 -92 18 -102 5 -19 6 -19
23 2 17 21 17 25 -6 104 -12 45 -22 83 -21 84 1 1 19 9 39 17 l37 15 42 -74
c34 -59 47 -74 66 -74 13 0 23 2 23 5 0 3 -25 41 -55 84 -78 111 -48 110 38
-1 68 -87 69 -88 113 -88 l44 0 0 43 c-1 41 -3 43 -90 110 -80 60 -105 87 -83
87 4 0 38 -22 77 -48 100 -68 96 -67 96 -38 0 20 -13 32 -75 66 -41 23 -75 45
-75 50 0 7 18 56 26 68 1 2 39 -6 84 -18 79 -20 83 -20 102 -3 19 17 17 18
-78 35 -53 10 -99 20 -102 23 -16 15 20 17 124 6 l117 -13 29 29 28 29 -30 29
-30 29 -112 -11 c-62 -6 -116 -9 -121 -6 -18 11 8 21 93 33 50 7 93 16 95 20
3 4 -2 14 -11 21 -15 12 -59 5 -169 -26 -17 -5 -23 1 -33 29 -7 20 -11 40 -8
45 4 5 35 26 71 46 53 29 65 41 65 61 0 25 -2 24 -80 -30 -44 -30 -82 -51 -85
-46 -3 5 33 40 80 77 l85 68 0 48 0 47 -39 0 c-38 0 -43 -4 -111 -90 -39 -50
-75 -88 -80 -85 -6 3 15 41 45 84 30 43 55 81 55 85 0 3 -10 6 -23 6 -18 0
-32 -16 -66 -75 -23 -41 -44 -75 -47 -75 -21 0 -75 32 -71 42 2 7 13 46 23 85
17 68 17 74 2 90 -21 20 -21 18 -38 -82 -16 -94 -20 -109 -31 -98 -5 5 -4 56
3 121 l12 113 -30 30 -30 29 -29 -30z"/>
<path d="M967 2223 c-6 -30 -10 -33 -43 -33 l-37 0 27 -21 c22 -18 26 -26 21
-51 l-7 -30 25 17 c24 15 27 15 51 0 27 -18 30 -14 16 20 -6 15 -1 25 19 42
l26 22 -32 1 c-28 0 -35 5 -46 33 l-13 32 -7 -32z"/>
<path d="M2691 2218 c-8 -23 -17 -28 -43 -28 l-33 -1 26 -22 c20 -17 25 -27
19 -42 -14 -34 -11 -38 16 -20 24 15 27 15 51 0 l25 -17 -7 30 c-5 25 -1 33
21 51 l27 21 -36 0 c-30 0 -37 4 -45 28 l-10 27 -11 -27z"/>
<path d="M5692 2179 c-169 -26 -311 -129 -357 -259 -8 -23 -15 -53 -15 -66 0
-24 1 -24 100 -24 l99 0 10 35 c14 53 45 88 103 120 42 23 68 30 134 33 200
11 314 -85 314 -263 l0 -62 -187 -6 c-212 -8 -299 -23 -392 -68 -118 -58 -182
-144 -202 -270 -26 -161 49 -302 198 -371 171 -80 393 -52 540 68 l42 35 6
-28 c3 -15 10 -45 16 -65 l10 -38 104 0 c120 0 116 -4 89 90 -14 45 -18 128
-23 455 l-6 401 -33 66 c-51 103 -147 176 -272 206 -68 16 -207 22 -278 11z
m388 -762 c0 -121 -1 -124 -30 -163 -33 -46 -82 -83 -155 -116 -73 -33 -220
-33 -288 1 -63 31 -99 84 -105 155 -9 107 43 180 152 215 84 27 90 28 269 30
l157 1 0 -123z"/>
<path d="M7190 2180 c-104 -19 -205 -75 -279 -155 -23 -25 -44 -45 -46 -45 -3
0 -5 41 -5 90 l0 90 -100 0 -100 0 0 -605 0 -605 105 0 105 0 0 395 0 396 25
50 c34 67 95 125 164 158 52 24 66 26 191 26 74 0 153 -4 176 -8 l40 -8 13 97
c7 53 9 100 4 105 -9 9 -162 30 -213 28 -19 -1 -55 -5 -80 -9z"/>
<path d="M8044 2181 c-116 -19 -238 -81 -298 -152 -39 -46 -76 -127 -76 -166
l0 -33 100 0 c83 0 100 3 100 15 0 29 40 94 73 119 50 38 111 56 192 56 90 0
163 -23 214 -66 48 -41 71 -98 78 -190 l6 -71 -189 -6 c-106 -4 -219 -13 -258
-22 -131 -28 -240 -94 -292 -176 -88 -140 -63 -347 54 -450 167 -146 445 -144
632 5 l45 36 11 -53 c6 -29 14 -59 18 -65 10 -17 216 -17 216 1 0 6 -8 35 -17
62 -14 42 -18 114 -22 456 l-6 405 -38 77 c-53 107 -132 168 -263 202 -71 18
-213 26 -280 16z m386 -756 c0 -135 -6 -152 -80 -218 -75 -68 -143 -92 -260
-92 -79 0 -102 4 -137 23 -53 28 -88 74 -103 134 -16 63 7 145 51 182 79 66
155 84 367 85 l162 1 0 -115z"/>
<path d="M10420 2179 c-198 -34 -377 -211 -436 -429 -25 -93 -25 -322 0 -405
45 -151 144 -280 261 -342 209 -110 483 -92 662 43 46 35 118 113 111 120 -2
1 -30 23 -62 48 l-59 46 -46 -43 c-90 -84 -175 -117 -297 -117 -198 0 -357
147 -381 352 l-6 48 432 0 431 0 0 106 c0 185 -46 324 -142 429 -59 64 -114
100 -199 126 -73 23 -195 31 -269 18z m240 -195 c30 -16 70 -50 92 -77 38 -49
78 -154 78 -208 l0 -29 -326 0 -327 0 6 39 c6 47 48 142 83 188 90 118 265
157 394 87z"/>
<path d="M8753 2128 c7 -18 121 -295 253 -615 l239 -583 80 0 80 0 248 608
c136 334 247 610 247 615 0 4 -47 7 -104 7 l-104 0 -10 -27 c-5 -16 -84 -229
-176 -476 -91 -246 -166 -453 -166 -460 0 -39 -17 -19 -39 46 -15 41 -98 264
-186 496 l-160 421 -108 0 -107 0 13 -32z"/>
<path d="M3517 2001 c-49 -14 -88 -30 -87 -36 1 -8 122 -175 177 -245 10 -12
12 18 13 148 0 89 -3 162 -7 161 -5 -1 -48 -13 -96 -28z"/>
<path d="M3055 1876 l-120 -33 3 -60 c2 -32 -2 -104 -8 -158 -46 -382 -268
-700 -605 -866 -252 -123 -517 -148 -783 -73 -18 5 -2 -28 94 -192 168 -285
179 -302 211 -310 20 -5 75 9 208 55 99 34 491 167 870 295 l690 234 3 290 2
290 -140 194 c-78 106 -169 231 -203 278 -40 54 -69 85 -82 86 -11 1 -74 -13
-140 -30z"/>
<path d="M705 1264 c-66 -18 -226 -61 -355 -94 -129 -34 -259 -68 -287 -76
l-53 -15 0 -339 c0 -304 2 -344 19 -399 48 -153 188 -285 342 -320 45 -11
1189 -16 1189 -6 0 3 -40 74 -89 158 -78 134 -257 451 -546 970 -48 86 -90
156 -94 156 -3 -1 -60 -16 -126 -35z"/>
<path d="M1832 821 c-9 -26 -16 -31 -43 -31 l-32 0 26 -20 c22 -18 25 -25 17
-46 -14 -36 -13 -37 18 -18 27 15 31 15 55 -1 l27 -17 -11 31 c-6 18 -10 33
-8 35 2 1 15 10 29 19 l24 17 -32 0 c-27 0 -35 5 -46 31 l-13 31 -11 -31z"/>
<path d="M3480 397 c-74 -27 -346 -125 -605 -218 l-470 -168 405 0 c311 -1
417 2 456 13 128 34 244 127 302 242 28 57 57 155 50 171 -1 5 -64 -13 -138
-40z"/>
</g>
</svg>
